<svg width="849" height="647" viewBox="0 0 849 647" fill="none" xmlns="http://www.w3.org/2000/svg">
<rect x="320" y="264" width="229" height="298" rx="89" fill="#93AF93"/>
<path d="M2.68325 546.995C1.27498 539.125 7.23671 531.861 15.23 531.707L800.079 516.614C803.841 516.542 807.449 518.102 809.972 520.892L843.054 557.477C846.386 561.162 847.326 566.425 845.476 571.037L818.363 638.618C816.341 643.658 811.4 646.91 805.972 646.774L27.6027 627.266C21.431 627.111 16.2192 622.637 15.1317 616.56L2.68325 546.995Z" fill="#696969"/>
<rect x="324.158" y="482.36" width="74.5283" height="109" rx="7" transform="rotate(73.5 324.158 482.36)" fill="#E7DCA5"/>
<rect x="238.5" y="334.5" width="393" height="254" rx="10.5" fill="#E7DCA5" stroke="#CAC090"/>
<ellipse cx="435" cy="461.5" rx="18" ry="22.5" fill="white"/>
<rect x="411" y="254" width="44" height="28" rx="14" fill="#FFF1EB"/>
<rect x="412" y="236" width="42" height="28" fill="#FFF1EB"/>
<path d="M529.975 132.85C530.008 135.458 529.595 138.113 528.827 140.606C504.854 218.428 499.789 247 430.516 247C361.286 247 349.866 203.953 330.956 135.875C330.326 133.605 329.993 131.215 330.021 128.859C330.922 51.8577 361.193 10 430.516 10C499.726 10 529.013 55.9482 529.975 132.85Z" fill="#FFF4EF"/>
<path d="M334.5 90.7779V104.409C334.5 104.791 334.367 105.161 334.124 105.456C333.142 106.649 331.206 105.954 331.206 104.409L331.206 102L331.206 97.5V94.3949C331.206 93.1508 331.36 91.9115 331.666 90.7056L332.663 86.7789L334.411 81.3953L336.16 76.7295L337.617 72.0637L340.531 65.6034L342.863 60.5787L345.777 55.1951L348.983 50.1704L352.189 45.1457L356.269 39.762L359.766 35.4551L362.68 32.225L366.177 28.6359L370.257 25.0468L374.337 21.4577L378.126 18.5865L380.485 16.7373C381.049 16.2958 381.643 15.8951 382.264 15.5384L385.703 13.5618L389.491 11.4083L392.989 9.61379L397.651 7.46034L399.346 6.62565C400.157 6.22584 401.004 5.90028 401.874 5.65295L404.354 4.94799L407.56 3.87126L411.931 2.79454L416.886 1.71782L423.006 1H427.377H432.331L438.451 1.35891L443.406 2.07672L450.4 3.51235L455.354 4.94799L459.434 6.38362L463.806 8.53706L468.177 10.3316L474.297 13.9207L478.96 16.7919L482.749 19.6632L488.869 25.0468L491.783 27.5592L494.989 30.7893L498.194 34.0195L500.526 36.5319L503.731 40.8388L507.229 45.5046L508.686 47.658L510.143 49.8115L511.6 51.9649L515.097 58.4252L518.303 64.5267L519.469 67.039L520.634 69.9103L522.091 73.4994L523.257 76.7295L524.423 79.6008L525.88 83.5488L527.337 88.5L527.764 90.2099C528.061 91.3988 528.211 92.6196 528.211 93.8451V94.5V99.5V100.431C528.211 100.809 528.255 101.186 528.341 101.554L528.861 103.769C528.997 104.348 528.773 104.952 528.293 105.303C527.734 105.71 526.967 105.676 526.447 105.22L526.372 105.155C526.057 104.879 525.862 104.49 525.829 104.073L524.79 90.7146C524.551 87.646 523.374 84.7251 521.418 82.3483L505.5 63L487.886 37.3252C482.36 29.2703 470.732 28.5622 464.269 35.8869L452.107 49.6709C450.986 50.9413 449.569 51.9147 447.981 52.5048L446.804 52.9421C436.328 56.8347 424.764 56.603 414.452 52.2938C413.364 51.8392 412.369 51.1877 411.517 50.372L394.542 34.1116C387.707 27.5648 376.592 28.9063 371.511 36.8912L351.643 68.1133C350.885 69.3053 349.962 70.3842 348.902 71.3179L339.587 79.5206C336.353 82.3683 334.5 86.469 334.5 90.7779Z" fill="#EEE19E" stroke="#EEE19E"/>
<ellipse cx="331.5" cy="122" rx="11.5" ry="17" fill="#FFF4EF"/>
<ellipse cx="528.5" cy="122" rx="11.5" ry="17" fill="#FFF4EF"/>
<path d="M409 264V266V267.16C409 268.376 409.232 269.58 409.683 270.708V270.708C409.894 271.235 410.151 271.742 410.452 272.223L411.169 273.37C412.049 274.778 413.181 276.011 414.51 277.007V277.007C415.825 277.994 417.311 278.732 418.892 279.183L420 279.5V279.5C421.663 279.833 423.354 280 425.05 280H443.08C443.692 280 444.304 279.957 444.911 279.87L445.464 279.791C446.808 279.599 448.1 279.14 449.264 278.442V278.442C449.754 278.148 450.218 277.813 450.652 277.441L452.008 276.279C452.998 275.43 453.867 274.45 454.59 273.365V273.365C455.195 272.458 455.696 271.478 456.078 270.458V270.458C456.685 268.84 457 267.115 457 265.387V264" stroke="#F8F8F8" stroke-width="5"/>
<rect x="328.651" y="123.376" width="5.47006" height="22" transform="rotate(-17.5 328.651 123.376)" fill="white" stroke="#F4F4F4"/>
<ellipse cx="331" cy="122.5" rx="6" ry="5.5" fill="white"/>
<rect x="527.168" y="120.37" width="5.47006" height="22" transform="rotate(18 527.168 120.37)" fill="white" stroke="#F4F4F4"/>
<ellipse cx="529" cy="122.5" rx="6" ry="5.5" fill="white"/>
<path d="M82.1118 524.373C81.2885 517.527 86.6338 511.5 93.5295 511.5H140.385C147.31 511.5 152.664 517.575 151.794 524.444L144.832 579.444C144.105 585.191 139.216 589.5 133.423 589.5H100.143C94.3232 589.5 89.4206 585.152 88.7257 579.373L82.1118 524.373Z" fill="white" stroke="#DDDDDD"/>
<path d="M146.5 520L146.5 520.001C146.5 520.011 146.502 520.103 146.392 520.317C146.268 520.559 146.003 520.95 145.47 521.453C144.373 522.491 142.489 523.68 139.706 524.793C134.17 527.007 126.144 528.5 117 528.5C107.856 528.5 99.8302 527.007 94.2939 524.793C91.5105 523.68 89.6271 522.491 88.5296 521.453C87.9971 520.95 87.7315 520.559 87.6075 520.317C87.4982 520.103 87.4998 520.011 87.5 520.001C87.5 520 87.5 520 87.5 520C87.5 520 87.5 520 87.5 519.999C87.4998 519.989 87.4982 519.897 87.6075 519.683C87.7315 519.441 87.9971 519.05 88.5296 518.547C89.6271 517.509 91.5105 516.32 94.2939 515.207C99.8302 512.993 107.856 511.5 117 511.5C126.144 511.5 134.17 512.993 139.706 515.207C142.489 516.32 144.373 517.509 145.47 518.547C146.003 519.05 146.268 519.441 146.392 519.683C146.502 519.897 146.5 519.989 146.5 519.999L146.5 520Z" fill="white" stroke="#636363" stroke-width="11"/>
<path d="M127 522C127 526.418 117.374 530 105.5 530C93.6259 530 84 526.418 84 522C84 517.582 99.6259 514 111.5 514C123.374 514 127 517.582 127 522Z" fill="#B5996F"/>
<path d="M130 527C129 530 132.374 533 120.5 533C104 534 88.5 528.5 88 526.5C88 522.082 96.6259 519 108.5 519C120.374 519 130 522.582 130 527Z" fill="#B5996F"/>
<path d="M149 524C148.166 527.5 137.5 531.5 127 532.5C115.126 532.5 106 529.418 106 525C106 520.582 93.5 512 125.5 514C137.374 514 150.5 520 149 524Z" fill="#B5996F"/>
</svg>
